<svg width="15" height="13" viewBox="0 0 15 13" fill="none" xmlns="http://www.w3.org/2000/svg">
<path fill-rule="evenodd" clip-rule="evenodd" d="M0.982422 6.82273C0.982422 6.59848 1.07151 6.38341 1.23008 6.22484C1.38865 6.06627 1.60372 5.97718 1.82797 5.97718H11.6245L7.9937 2.3481C7.83493 2.18932 7.74573 1.97398 7.74573 1.74945C7.74573 1.52491 7.83493 1.30957 7.9937 1.1508C8.15247 0.992029 8.36781 0.902832 8.59235 0.902832C8.81688 0.902832 9.03222 0.992029 9.19099 1.1508L14.2643 6.22408C14.343 6.30263 14.4055 6.39593 14.4481 6.49866C14.4907 6.60139 14.5127 6.71151 14.5127 6.82273C14.5127 6.93395 14.4907 7.04407 14.4481 7.1468C14.4055 7.24953 14.343 7.34283 14.2643 7.42138L9.19099 12.4947C9.03222 12.6534 8.81688 12.7426 8.59235 12.7426C8.36781 12.7426 8.15247 12.6534 7.9937 12.4947C7.83493 12.3359 7.74573 12.1205 7.74573 11.896C7.74573 11.6715 7.83493 11.4561 7.9937 11.2974L11.6245 7.66828H1.82797C1.60372 7.66828 1.38865 7.57919 1.23008 7.42062C1.07151 7.26205 0.982422 7.04698 0.982422 6.82273Z" fill="white"/>
</svg>
