<svg width="25" height="25" viewBox="0 0 25 25" fill="none" xmlns="http://www.w3.org/2000/svg">
<path d="M1.5625 1.5625H23.4375V23.4375H1.5625V1.5625Z" fill="#F5DE19"/>
<path d="M16.2569 18.6523C16.4433 19.0309 16.7329 19.3492 17.0923 19.5703C17.4517 19.7915 17.8662 19.9066 18.2882 19.9023C19.1397 19.9023 19.6843 19.4766 19.6843 18.8867C19.6843 18.1836 19.1249 17.932 18.1874 17.5219L17.6733 17.3016C16.189 16.6695 15.2046 15.8781 15.2046 14.2047C15.2046 12.6633 16.3765 11.4891 18.2147 11.4891C18.8098 11.4461 19.4044 11.5793 19.9243 11.872C20.4442 12.1647 20.8663 12.6041 21.1382 13.1352L19.5312 14.1625C19.4265 13.8992 19.2442 13.6739 19.0086 13.5165C18.7729 13.3591 18.495 13.2771 18.2116 13.2813C18.088 13.2689 17.9632 13.2824 17.845 13.3209C17.7269 13.3595 17.6181 13.4222 17.5256 13.5051C17.4331 13.588 17.3588 13.6893 17.3076 13.8025C17.2563 13.9156 17.2293 14.0383 17.228 14.1625C17.228 14.7789 17.6101 15.0289 18.4921 15.4125L19.0062 15.6328C20.753 16.382 21.7405 17.1453 21.7405 18.8617C21.7405 20.7125 20.2866 21.7266 18.3343 21.7266C17.5736 21.775 16.8151 21.6023 16.1504 21.2293C15.4857 20.8562 14.9431 20.2988 14.5882 19.6242L16.2569 18.6523ZM8.99521 18.8305C9.31787 19.4031 9.61162 19.8875 10.3179 19.8875C10.9929 19.8875 11.4194 19.6234 11.4194 18.5961V11.6063H13.4749V18.6234C13.4749 20.7516 12.2249 21.7203 10.4054 21.7203C9.76221 21.7555 9.12346 21.5952 8.57309 21.2605C8.02273 20.9259 7.58651 20.4325 7.32178 19.8453L8.99521 18.8305Z" fill="black"/>
</svg>
