<svg width="35" height="35" viewBox="0 0 35 35" fill="none" xmlns="http://www.w3.org/2000/svg">
<path d="M30.2487 19.024C29.2604 19.2864 28.2423 19.4193 27.2197 19.4192C24.1062 19.4192 21.1822 18.2088 18.986 16.0125C17.5438 14.562 16.5069 12.7588 15.9788 10.7826C15.4507 8.80648 15.4497 6.72643 15.976 4.7498C16.0417 4.50266 16.0413 4.24258 15.9748 3.99565C15.9083 3.74873 15.778 3.52363 15.597 3.34295C15.416 3.16227 15.1907 3.03235 14.9437 2.96624C14.6966 2.90012 14.4366 2.90013 14.1895 2.96626C11.715 3.62569 9.45733 4.92425 7.64308 6.73168C1.95849 12.4163 1.95849 21.6694 7.64308 27.3569C8.99426 28.7156 10.6015 29.7929 12.3718 30.5263C14.1421 31.2597 16.0402 31.6348 17.9564 31.6298C19.8721 31.6352 21.7698 31.2604 23.5396 30.5272C25.3095 29.794 26.9162 28.7169 28.2668 27.3583C30.0756 25.5437 31.3748 23.2849 32.0337 20.809C32.0992 20.5619 32.0986 20.302 32.0321 20.0553C31.9656 19.8085 31.8355 19.5835 31.6548 19.4028C31.4741 19.2221 31.2491 19.092 31.0024 19.0255C30.7556 18.9591 30.4957 18.9585 30.2487 19.024ZM26.2062 25.2963C25.1255 26.3829 23.8401 27.2443 22.4243 27.8308C21.0084 28.4174 19.4904 28.7172 17.9579 28.7131C16.4249 28.7169 14.9063 28.4168 13.49 27.8301C12.0737 27.2433 10.7878 26.3816 9.70662 25.2948C5.15953 20.7463 5.15953 13.3438 9.70662 8.79522C10.5853 7.91755 11.5997 7.18728 12.7108 6.63251C12.5481 8.73114 12.8405 10.8401 13.5679 12.8154C14.2953 14.7906 15.4405 16.5856 16.9254 18.0775C18.414 19.567 20.2084 20.7154 22.1845 21.4434C24.1606 22.1713 26.2712 22.4614 28.3704 22.2936C27.8126 23.4028 27.0821 24.4163 26.2062 25.2963Z" fill="white"/>
</svg>
